<svg width="197" height="48" viewBox="0 0 197 48" fill="none" xmlns="http://www.w3.org/2000/svg">
<g clip-path="url(#clip0_101_2)">
<path d="M188.822 25C184.752 25 181.911 24.0422 179.523 21.6356C177.266 19.3623 175.873 16.8947 175.738 12.9971C175.73 12.8907 175.727 12.5645 175.727 12.5127C175.727 12.5119 175.727 12.5109 175.729 12.5092C175.728 12.5078 175.727 12.5069 175.727 12.5061C175.727 12.5053 175.729 12.5036 175.732 12.5003C175.728 12.4973 175.727 12.4954 175.727 12.4944C175.727 12.4931 175.728 12.492 175.729 12.4913C175.728 12.4894 175.727 12.4886 175.727 12.4878C175.726 12.4365 175.73 12.1097 175.738 12.0035C175.873 8.10577 177.266 5.63794 179.523 3.36493C181.912 0.958212 184.752 0.0005129 188.822 0.0005129H197.239V4.6893H188.822C186.692 4.69122 184.649 5.53293 183.141 7.03028C182.444 7.75023 180.903 9.23402 180.9 12.5004C180.902 15.7664 182.444 17.2505 183.141 17.9706C184.649 19.4679 186.692 20.3094 188.822 20.3113H197.239V25H188.822ZM127.598 25C123.529 25 120.688 24.0422 118.299 21.6356C116.042 19.3623 114.65 16.8947 114.514 12.9971C114.507 12.8907 114.503 12.5645 114.503 12.5127C114.503 12.5119 114.503 12.5109 114.506 12.5092C114.504 12.5078 114.503 12.5069 114.503 12.5061C114.503 12.5053 114.505 12.5036 114.508 12.5003C114.505 12.4973 114.503 12.4954 114.503 12.4944C114.504 12.4932 114.505 12.4921 114.506 12.4914C114.504 12.4895 114.503 12.4887 114.503 12.4879C114.503 12.4366 114.506 12.1098 114.514 12.0036C114.649 8.10587 116.042 5.63804 118.299 3.36504C120.688 0.958315 123.529 0.000615481 127.598 0.000615481H136.016V4.6894H127.598C125.468 4.69131 123.425 5.53301 121.917 7.03038C121.22 7.75034 119.679 9.23413 119.676 12.5005C119.679 15.7665 121.22 17.2506 121.917 17.9707C123.426 19.4679 125.468 20.3095 127.598 20.3115H136.016V25H127.598ZM0.00012207 25V20.3111H8.41797C10.5479 20.3092 12.5903 19.4676 14.0987 17.9704C14.7957 17.2499 16.3371 15.7665 16.3388 12.5002C16.337 9.23413 14.7957 7.74998 14.0986 7.03002C12.5903 5.53264 10.5479 4.69098 8.41797 4.68909H0.000740234V0H8.41859C12.4877 0 15.3289 0.957648 17.7173 3.36437C19.974 5.63769 21.3667 8.10526 21.5025 12.0029C21.5096 12.1088 21.5131 12.4355 21.5131 12.4874C21.5131 12.4882 21.5123 12.4891 21.5104 12.4904C21.5124 12.4922 21.5131 12.4929 21.5131 12.494C21.5131 12.495 21.5118 12.4966 21.5082 12.4999C21.5118 12.5025 21.5131 12.5047 21.5131 12.5057C21.5125 12.507 21.5116 12.5081 21.5104 12.5088C21.5124 12.5106 21.5131 12.5114 21.5131 12.5123C21.5131 12.563 21.5101 12.8904 21.5025 12.9967C21.3672 16.8943 19.9742 19.3623 17.7173 21.6353C15.3288 24.042 12.4878 24.9997 8.41859 24.9997L0.00012207 25ZM49.7065 24.9895C45.9973 24.9895 43.5697 24.6373 41.4459 22.479C39.3221 20.3207 38.2592 16.4762 38.2592 12.8831C38.2592 9.05647 39.4534 5.95303 41.8418 3.57271C44.2306 1.19172 46.8402 0.00128225 50.6511 0.00128225H59.5336V4.68258H51.0891C48.8186 4.68258 46.9864 5.58971 45.5926 7.00253C44.1987 8.41534 43.4702 10.7768 43.502 12.9853C43.5337 15.1938 44.1599 17.3828 45.4749 18.7563C46.7898 20.1298 48.5607 20.2824 50.7862 20.2824H54.7752V13.8092L59.5341 13.8309L59.5586 24.9891L49.7065 24.9895ZM164.9 24.9836V0H170.363V24.983L164.9 24.9836ZM26.986 24.9836V0H32.4486V24.983L26.986 24.9836ZM146.767 24.9818V4.69242H140.394V0H158.635V4.69181H152.229V24.9816L146.767 24.9818ZM104.589 24.9818L100.426 8.61242C100.426 8.61242 99.9932 6.58107 98.6151 6.53748C97.2369 6.58076 96.8041 8.61242 96.8041 8.61242L92.6401 24.9819H86.7388C86.7388 24.9819 90.3917 12.4609 92.1501 6.0332C93.8299 -0.105774 98.6147 0.000615481 98.6147 0.000615481C98.6147 0.000615481 103.399 -0.105669 105.079 6.0332C106.837 12.4611 110.49 24.9819 110.49 24.9819L104.589 24.9818ZM66.1722 24.9654V0.025645H71.6179V20.3434H81.5504V24.9652L66.1722 24.9654Z" fill="black"/>
<path d="M5.07889 47.4085C2.18197 47.4085 0 45.1382 0 42.3352C0 39.5229 2.07055 37.2339 5.07889 37.2339C6.6759 37.2339 7.78078 37.7197 8.6443 38.8316L7.25154 39.9808C6.66661 39.3641 5.96094 39.0558 5.07889 39.0558C3.11975 39.0558 2.04269 40.5413 2.04269 42.3352C2.04269 44.1291 3.22188 45.5866 5.07889 45.5866C5.95165 45.5866 6.69448 45.2783 7.27942 44.6617L8.65359 45.8576C7.82724 46.9227 6.69448 47.4085 5.07889 47.4085Z" fill="#292929"/>
<path d="M14.6517 39.943H16.5272V47.2306H14.6517V46.1655C14.2617 46.9223 13.6117 47.4268 12.3676 47.4268C10.3806 47.4268 8.79285 45.7171 8.79285 43.6149C8.79285 41.5126 10.3806 39.8029 12.3676 39.8029C13.6025 39.8029 14.2617 40.3074 14.6517 41.0642V39.943ZM14.7074 43.6149C14.7074 42.475 13.9181 41.5313 12.674 41.5313C11.4762 41.5313 10.6963 42.4843 10.6963 43.6149C10.6963 44.7173 11.4762 45.6983 12.674 45.6983C13.9089 45.6983 14.7074 44.7454 14.7074 43.6149Z" fill="#292929"/>
<path d="M17.855 37H19.7305V47.2214H17.855V37Z" fill="#292929"/>
<path d="M20.5662 46.2591C20.5662 45.6612 21.049 45.1566 21.7082 45.1566C22.3675 45.1566 22.8317 45.6612 22.8317 46.2591C22.8317 46.8758 22.3582 47.3803 21.7082 47.3803C21.0583 47.3803 20.5662 46.8758 20.5662 46.2591Z" fill="#292929"/>
<path d="M30.009 46.0534C29.3126 46.8942 28.2542 47.4268 27.0007 47.4268C24.763 47.4268 23.1196 45.7171 23.1196 43.6149C23.1196 41.5126 24.763 39.8029 27.0007 39.8029C28.2077 39.8029 29.2569 40.3074 29.9533 41.1015L28.5049 42.3068C28.1427 41.8583 27.6692 41.522 27.0007 41.522C25.8029 41.522 25.023 42.475 25.023 43.6055C25.023 44.736 25.8029 45.689 27.0007 45.689C27.7249 45.689 28.2263 45.3153 28.5977 44.8108L30.009 46.0534Z" fill="#292929"/>
<path d="M30.1669 43.6149C30.1669 41.5126 31.8103 39.8029 34.048 39.8029C36.2856 39.8029 37.9291 41.5126 37.9291 43.6149C37.9291 45.7171 36.2856 47.4268 34.048 47.4268C31.8103 47.4174 30.1669 45.7171 30.1669 43.6149ZM36.0256 43.6149C36.0256 42.475 35.2457 41.5313 34.048 41.5313C32.8502 41.522 32.0703 42.475 32.0703 43.6149C32.0703 44.7454 32.8502 45.6983 34.048 45.6983C35.2457 45.6983 36.0256 44.7454 36.0256 43.6149Z" fill="#292929"/>
<path d="M50.6122 42.7741V47.2214H48.7368V43.2319C48.7368 41.9706 48.1426 41.4287 47.2512 41.4287C46.4156 41.4287 45.8213 41.8398 45.8213 43.2319V47.2214H43.9458V43.2319C43.9458 41.9706 43.3422 41.4287 42.4602 41.4287C41.6245 41.4287 40.891 41.8398 40.891 43.2319V47.2214H39.0155V39.9338H40.891V40.9429C41.281 40.158 41.9866 39.7656 43.073 39.7656C44.1036 39.7656 44.9671 40.2701 45.4406 41.1204C45.9142 40.2515 46.6106 39.7656 47.8733 39.7656C49.4146 39.775 50.6122 40.9335 50.6122 42.7741Z" fill="#292929"/>
<line x1="197" y1="43.25" x2="62" y2="43.25" stroke="black" stroke-width="0.5"/>
</g>
<defs>
<clipPath id="clip0_101_2">
<rect width="197" height="48" fill="white"/>
</clipPath>
</defs>
</svg>
